<svg xmlns="http://www.w3.org/2000/svg" id="icon-ranking" viewBox="0 0 1024 1024" fill="#ffa726">
  <path d="M907.636364 884.363636H116.363636c-39.563636 0-69.818182-30.254545-69.818181-69.818181V442.181818c0-39.563636 30.254545-69.818182 69.818181-69.818182h209.454546V209.454545c0-39.563636 30.254545-69.818182 69.818182-69.818181h232.727272c39.563636 0 69.818182 30.254545 69.818182 69.818181v256h209.454546c39.563636 0 69.818182 30.254545 69.818181 69.818182v279.272728c0 39.563636-30.254545 69.818182-69.818181 69.818181zM325.818182 418.909091H128c-18.618182 0-34.909091 16.290909-34.909091 34.909091v349.090909c0 18.618182 16.290909 34.909091 34.909091 34.909091H325.818182V418.909091z m325.818182-197.818182c0-18.618182-16.290909-34.909091-34.909091-34.909091h-209.454546c-18.618182 0-34.909091 16.290909-34.909091 34.909091V837.818182h279.272728V221.090909z m279.272727 325.818182c0-18.618182-16.290909-34.909091-34.909091-34.909091H698.181818v325.818182h197.818182c18.618182 0 34.909091-16.290909 34.909091-34.909091v-256z m-411.927273-130.327273l23.272727 46.545455 51.2 6.981818c4.654545 0 6.981818 6.981818 4.654546 11.636364L558.545455 521.309091l9.30909 53.527273c0 4.654545-4.654545 9.309091-9.30909 6.981818l-46.545455-23.272727-44.218182 23.272727c-4.654545 2.327273-11.636364-2.327273-9.309091-6.981818l9.309091-53.527273-37.236363-37.236364c-4.654545-4.654545-2.327273-11.636364 4.654545-11.636363l51.2-6.981819 23.272727-46.545454c-2.327273-6.981818 6.981818-6.981818 9.309091-2.327273z"></path>
</svg>